<svg id="blurent_logo" data-name="blurent logo" xmlns="http://www.w3.org/2000/svg" xmlns:xlink="http://www.w3.org/1999/xlink" width="170.111" height="64" viewBox="0 0 170.111 64">
  <defs>
    <clipPath id="clip-path">
      <rect id="Rectangle_68" data-name="Rectangle 68" width="170.111" height="64" fill="none"/>
    </clipPath>
  </defs>
  <g id="blurent-logo">
    <g id="blurent-logo-2" data-name="blurent-logo" clip-path="url(#clip-path)">
      <path id="Path_220" data-name="Path 220" d="M0,33.1H8.763c7.108,0,11.092,3.37,11.092,7.476a6.128,6.128,0,0,1-3.677,5.7v.245a6.741,6.741,0,0,1,5.27,6.618c0,4.106-3.983,7.476-11.092,7.476H0Zm6.618,5.331v5.7h3c2.451,0,3.677-1.164,3.677-3.064s-1.348-2.7-4.106-2.7Zm0,10.6v6.128h4.167c2.512,0,4.106-.919,4.106-2.758a3.371,3.371,0,0,0-3.677-3.37Z" transform="translate(0 -12.817)" fill="#2c1df6"/>
      <path id="Path_221" data-name="Path 221" d="M41.3,33.1h6.618V55.222H58.091v5.331H41.3Z" transform="translate(-15.992 -12.817)" fill="#2c1df6"/>
      <path id="Path_222" data-name="Path 222" d="M97.138,50.748c0,6.128-5.147,10.172-11.95,10.172S73.3,56.938,73.3,50.748V33.1h6.618V50.748c0,3.309,2.39,4.841,5.27,4.841S90.52,54,90.52,50.748V33.1h6.618Z" transform="translate(-28.382 -12.817)" fill="#2c1df6"/>
      <path id="Path_223" data-name="Path 223" d="M120.1,33.1h9.621c7.108,0,11.091,3.983,11.091,8.7a8.027,8.027,0,0,1-4.657,7.353l6.25,11.4h-7.231L129.782,50.5h-3.125v10.05H120.1Zm6.618,5.331v6.741h3c3.064,0,4.535-.98,4.535-3.37s-1.471-3.37-4.535-3.37Z" transform="translate(-46.504 -12.817)" fill="#2c1df6"/>
      <path id="Path_224" data-name="Path 224" d="M161.5,60.553V33.1h17.648v5.331h-11.03v5.454h10.417v5.331H168.118v6.005h11.03v5.331Z" transform="translate(-62.534 -12.817)" fill="#2c1df6"/>
      <path id="Path_225" data-name="Path 225" d="M205.095,46.336,203.5,43.7h-.245V60.553H196.7V33.1h5.7l10.662,14.4,1.839,2.941.245-.123V33.1h6.618V60.553H216Z" transform="translate(-76.164 -12.817)" fill="#2c1df6"/>
      <path id="Path_226" data-name="Path 226" d="M256.794,38.431V60.553h-6.557V38.431H242.7V33.1h21.386v5.331Z" transform="translate(-93.975 -12.817)" fill="#2c1df6"/>
      <path id="Path_227" data-name="Path 227" d="M219.316,63.973A3.37,3.37,0,0,1,216.5,62.5L177.83,5.268a3.374,3.374,0,0,1,5.576-3.8L222.135,58.7a3.37,3.37,0,0,1-2.819,5.27" transform="translate(-68.63 0.002)" fill="#1df69f"/>
    </g>
  </g>
</svg>
