<svg xmlns="http://www.w3.org/2000/svg" width="32" height="21.895" viewBox="0 0 32 21.895">
  <g id="Group_45" data-name="Group 45" transform="translate(-321 -645)">
    <path id="Path_478" data-name="Path 478" d="M355.557,645v.048l-1.636,1.636-10.327,10.327a3.4,3.4,0,0,1-4.8,0l-10.327-10.327-1.637-1.636V645Z" transform="translate(-4.193)" fill="#1df69f"/>
    <path id="Path_479" data-name="Path 479" d="M353,650.83v19.416a.841.841,0,0,1-.842.842H321.842a.841.841,0,0,1-.842-.842V650.83h.048l1.636,1.636,10.327,10.327a5.645,5.645,0,0,0,7.978,0l10.327-10.327,1.636-1.636Z" transform="translate(0 -4.194)" fill="#1df69f"/>
  </g>
</svg>
