<svg xmlns="http://www.w3.org/2000/svg" width="746.563" height="447.602" viewBox="0 0 746.563 447.602">
  <g id="undraw_Relaxing_at_home_re_mror_3" transform="translate(-48.366)">
    <ellipse id="Ellipse_34" data-name="Ellipse 34" cx="21.084" cy="3.514" rx="21.084" ry="3.514" transform="translate(718.173 440.574)" fill="#d9d9d9"/>
    <rect id="Rectangle_172" data-name="Rectangle 172" width="1.757" height="36.897" transform="translate(762.099 108.496)" fill="#d9d9d9"/>
    <rect id="Rectangle_173" data-name="Rectangle 173" width="10.542" height="363.704" transform="translate(733.986 83.898)" fill="#d9d9d9"/>
    <path id="Path_556" data-name="Path 556" d="M875.316,113.328H778.767a7.461,7.461,0,0,1-7.467-7.467,3.609,3.609,0,0,1,.088-.966L783.687,6.5a7.341,7.341,0,0,1,7.38-6.5h71.95a7.413,7.413,0,0,1,7.38,6.5l12.3,98.393a7.441,7.441,0,0,1-6.5,8.346A2.709,2.709,0,0,1,875.316,113.328Z" transform="translate(-87.828 0)" fill="#d9d9d9"/>
    <circle id="Ellipse_35" data-name="Ellipse 35" cx="6.15" cy="6.15" r="6.15" transform="translate(756.828 139.244)" fill="#d9d9d9"/>
    <path id="Path_557" data-name="Path 557" d="M116.246,390.816c-4.48,15.374-17.395,26.18-30.924,35.316-1.845,1.318-3.778,2.548-5.622,3.778h0c-.088.088-.176.088-.264.176-.351.264-.791.527-1.142.791l.176.088h0a.307.307,0,0,1-.176-.088c-7.819-3.163-15.813-6.589-21.875-12.475-6.237-6.15-9.927-15.813-6.5-23.9a12.419,12.419,0,0,1,1.669-2.987,9.945,9.945,0,0,1,.879-1.142,16.493,16.493,0,0,1,23.281-2.284,16.036,16.036,0,0,1,5.1,7.38c.966-9.224-6.589-16.955-13.968-22.666s-15.725-11.948-17.131-21.172a17.884,17.884,0,0,1,4.217-14.056c.088-.088.176-.264.264-.351a24.011,24.011,0,0,1,15.55-8.346c11.245-1.142,22.226,4.832,30.4,12.651C113.26,353.918,121.254,373.245,116.246,390.816Z" transform="translate(-0.03 -39.938)" fill="#d9d9d9"/>
    <path id="Path_558" data-name="Path 558" d="M95.5,371.75a40.656,40.656,0,0,1,4.92,10.893,35.713,35.713,0,0,1,1.23,10.542,45.964,45.964,0,0,1-5.974,20.821,63.783,63.783,0,0,1-9.927,13.266c-1.845,1.318-3.778,2.548-5.622,3.778h0c-.088.088-.176.088-.264.176-.351.264-.791.527-1.142.791,0,0,.439.176.176.088a.307.307,0,0,1-.176-.088A35.959,35.959,0,0,0,52.1,392.571a9.94,9.94,0,0,1,.879-1.142,38.053,38.053,0,0,1,6.237,2.372,37.272,37.272,0,0,1,16.867,16.253,38.311,38.311,0,0,1,4.129,20.909c.351-.264.615-.615.966-.879a66.451,66.451,0,0,0,14.847-19.327,43.2,43.2,0,0,0,4.48-20.118c-.264-7.643-3.338-14.671-7.731-20.733a90.385,90.385,0,0,0-16.867-17.395,103.351,103.351,0,0,0-21-13,.739.739,0,0,1-.351-.966,1.213,1.213,0,0,1,.264-.351.392.392,0,0,1,.439,0c.966.439,1.845.879,2.723,1.318a105.147,105.147,0,0,1,21.172,13.968A85.424,85.424,0,0,1,95.5,371.75Z" transform="translate(-0.454 -41.078)" fill="#fff"/>
    <path id="Path_559" data-name="Path 559" d="M52.086,443.5h48.67a3.75,3.75,0,0,1,3.778,3.778v.439L98.3,497.265a3.935,3.935,0,0,1-3.69,3.338H58.323a3.649,3.649,0,0,1-3.69-3.338L48.4,447.717a3.819,3.819,0,0,1,3.25-4.217Z" transform="translate(0 -53.88)" fill="#d9d9d9"/>
    <circle id="Ellipse_36" data-name="Ellipse 36" cx="6.062" cy="6.062" r="6.062" transform="translate(204.595 434.951)" fill="#b3b3b3"/>
    <circle id="Ellipse_37" data-name="Ellipse 37" cx="6.062" cy="6.062" r="6.062" transform="translate(589.12 434.951)" fill="#b3b3b3"/>
    <path id="Path_560" data-name="Path 560" d="M344.686,391.981H249.28A16.834,16.834,0,0,1,232.5,375.2V310.28a16.834,16.834,0,0,1,16.78-16.78H344.6a16.834,16.834,0,0,1,16.78,16.78V375.2A16.76,16.76,0,0,1,344.686,391.981Z" transform="translate(-22.37 -35.657)" fill="#ccc"/>
    <path id="Path_561" data-name="Path 561" d="M490.7,392.581H395.38A16.834,16.834,0,0,1,378.6,375.8V310.88a16.834,16.834,0,0,1,16.78-16.78H490.7a16.834,16.834,0,0,1,16.779,16.78V375.8A16.834,16.834,0,0,1,490.7,392.581Z" transform="translate(-40.12 -35.73)" fill="#ccc"/>
    <path id="Path_562" data-name="Path 562" d="M636.8,393.081H541.479A16.834,16.834,0,0,1,524.7,376.3V311.38a16.834,16.834,0,0,1,16.779-16.78H636.8a16.834,16.834,0,0,1,16.78,16.78V376.3A16.778,16.778,0,0,1,636.8,393.081Z" transform="translate(-57.869 -35.791)" fill="#ccc"/>
    <rect id="Rectangle_174" data-name="Rectangle 174" width="420.016" height="87.763" transform="translate(195.459 352.722)" fill="#ccc"/>
    <path id="Path_563" data-name="Path 563" d="M228.253,486.7H209.98c-9.224,0-16.78-8.522-16.78-18.976V376.1h34.965V486.7Z" transform="translate(-17.596 -45.692)" fill="#ccc"/>
    <path id="Path_564" data-name="Path 564" d="M689.073,484.749H670.8V360h34.965V463.313C705.765,475.173,698.3,484.749,689.073,484.749Z" transform="translate(-75.618 -43.736)" fill="#ccc"/>
    <path id="Path_565" data-name="Path 565" d="M361.978,415.958H233.1v-27.41q64.439-36.9,128.878,0Z" transform="translate(-22.443 -44.963)" fill="#b3b3b3"/>
    <path id="Path_566" data-name="Path 566" d="M508.078,416.558H379.2v-27.41q64.439-36.9,128.878,0Z" transform="translate(-40.193 -45.036)" fill="#b3b3b3"/>
    <path id="Path_567" data-name="Path 567" d="M654.178,417.158H525.3v-27.41q64.439-36.9,128.878,0Z" transform="translate(-57.942 -45.109)" fill="#b3b3b3"/>
    <circle id="Ellipse_38" data-name="Ellipse 38" cx="29.957" cy="29.957" r="29.957" transform="translate(155.838 293.862)" fill="#b3b3b3"/>
    <circle id="Ellipse_39" data-name="Ellipse 39" cx="29.957" cy="29.957" r="29.957" transform="translate(594.127 292.896)" fill="#b3b3b3"/>
    <path id="Path_568" data-name="Path 568" d="M600.86,299.606a8.045,8.045,0,0,1,.088,1.493l35.843,24.686,9.576-4.568,8.7,13.529L638.9,344.41a7.015,7.015,0,0,1-8.346-.879L594.184,309.8a9.208,9.208,0,1,1,6.413-11.333c.088.439.176.791.264,1.142Z" transform="translate(-64.891 -35.438)" fill="#ffb8b8"/>
    <path id="Path_569" data-name="Path 569" d="M645.075,326.371a3.955,3.955,0,0,1,2.108-2.46l18.01-8.258A11.014,11.014,0,0,1,677.228,334.1L662.293,347.28a4.012,4.012,0,0,1-5.622-.351c-.088-.176-.264-.264-.351-.439L645.426,329.8A4.687,4.687,0,0,1,645.075,326.371Z" transform="translate(-72.471 -38.131)" fill="#1df69f"/>
    <path id="Path_570" data-name="Path 570" d="M600.223,301.153h-.176l-.527-6.764c-.176-2.2-1.581-3.866-3.163-3.69h0l-10.454.791c-1.581.088-4.48,2.108-4.3,4.3l.088,1.757,2.548,35.58c.176,2.2,3.338,3.69,4.92,3.6h0l10.454-.791c1.581-.088,2.723-1.933,2.548-4.129h0l-1.845-25.653h.176Z" transform="translate(-64.781 -35.315)" fill="#3f3d56"/>
    <path id="Path_571" data-name="Path 571" d="M599.346,294.511l2.723,37.249c.088,1.581-.7,2.987-1.933,3.075l-10.542.791c-1.142.088-2.2-1.142-2.372-2.811L584.5,295.565c-.088-1.581.7-2.987,1.933-3.075l1.318-.088a1.542,1.542,0,0,0,.7,1.757.528.528,0,0,0,.352.088l5.974-.439c.527,0,.966-.7.879-1.493,0-.176-.088-.351-.088-.527l1.405-.088A2.721,2.721,0,0,1,599.346,294.511Z" transform="translate(-65.133 -35.438)" fill="#fff"/>
    <path id="Path_572" data-name="Path 572" d="M433.114,388.964,429.6,378.773,467.288,360.5l5.1,15.11Z" transform="translate(-46.316 -43.797)" fill="#ffb8b8"/>
    <path id="Path_573" data-name="Path 573" d="M421.757,395.034,410.6,362.178l.439-.176a13.552,13.552,0,0,1,17.131,8.434h0l6.852,20.118Z" transform="translate(-44.007 -43.893)" fill="#2f2e41"/>
    <path id="Path_574" data-name="Path 574" d="M585.889,393.269a45.823,45.823,0,0,1-23.368-4.92l-44.277-30.133L466.5,377.368a5.714,5.714,0,0,1-7.116-3.251l-2.548-6.062a5.642,5.642,0,0,1,2.9-7.38L509.2,338.45a29.116,29.116,0,0,1,18.888-1.669L596.7,354.263l18.1,21.523-.176.264C605.744,388.437,595.2,392.566,585.889,393.269Z" transform="translate(-49.568 -40.81)" fill="#2f2e41"/>
    <circle id="Ellipse_40" data-name="Ellipse 40" cx="21.611" cy="21.611" r="21.611" transform="translate(570.759 219.276)" fill="#ffb8b8"/>
    <path id="Path_575" data-name="Path 575" d="M637.6,381.693l-34.7-25.828L626.62,339c-.7-2.2-3.69-14.671,12.738-23.1a68.235,68.235,0,0,0,11.157-6.852A16.348,16.348,0,0,1,661.672,305,16.8,16.8,0,0,1,677.4,326.611c-3.426,11.157-8.873,25.916-15.462,32.944a203.312,203.312,0,0,1-23.983,22.051Z" transform="translate(-67.369 -37.053)" fill="#1df69f"/>
    <path id="Path_576" data-name="Path 576" d="M439.326,399.264,435.9,389.073,473.588,370.8l5.1,15.11Z" transform="translate(-47.081 -45.048)" fill="#ffb8b8"/>
    <path id="Path_577" data-name="Path 577" d="M428.057,405.334,416.9,372.478l.439-.176a13.552,13.552,0,0,1,17.131,8.434h0l6.852,20.118Z" transform="translate(-44.773 -45.144)" fill="#2f2e41"/>
    <path id="Path_578" data-name="Path 578" d="M592.177,403.569a45.823,45.823,0,0,1-23.368-4.92l-44.365-30.133L472.7,387.668a5.714,5.714,0,0,1-7.116-3.25l-2.548-6.062a5.642,5.642,0,0,1,2.9-7.38L515.4,348.75a29.117,29.117,0,0,1,18.888-1.669L602.9,364.563l18.1,21.523-.176.264C612.032,398.737,601.4,402.866,592.177,403.569Z" transform="translate(-50.322 -42.061)" fill="#2f2e41"/>
    <path id="Path_579" data-name="Path 579" d="M596.368,329.641a8.8,8.8,0,0,1,.7,1.23l43.047,7.028,6.677-8.17,13.7,8.522-10.454,15.638a7,7,0,0,1-7.995,2.811l-47.264-14.935a9.215,9.215,0,1,1,.879-13,3.435,3.435,0,0,1,.7.878Z" transform="translate(-64.527 -39.557)" fill="#ffb8b8"/>
    <path id="Path_580" data-name="Path 580" d="M648.194,333.838a4.088,4.088,0,0,1,.878-3.163l12.738-15.2A10.961,10.961,0,0,1,680.523,326.9L672.7,345.171a4.009,4.009,0,0,1-5.183,2.108l-.527-.264-17.043-10.454A3.863,3.863,0,0,1,648.194,333.838Z" transform="translate(-72.867 -37.692)" fill="#1df69f"/>
    <path id="Path_581" data-name="Path 581" d="M658.389,293.491a47.421,47.421,0,0,0,9.927-28.2,30,30,0,0,1-9.839,4.744c-3.778.966-7.907,1.23-11.508-.439a13.482,13.482,0,0,1-7.38-13.529,16.864,16.864,0,0,1,9.224-12.826,21.674,21.674,0,0,1,16.077-.966,19.139,19.139,0,0,1,20.469-2.723c7.643,3.778,11.86,12.387,12.563,20.909s-1.406,16.867-3.6,25.125l-.264.966c-.7,2.548-2.635,7.467-2.635,7.467s-11.333-2.2-15.813-3.69C669.195,292.789,658.389,293.491,658.389,293.491Z" transform="translate(-71.817 -28.884)" fill="#2f2e41"/>
    <path id="Path_582" data-name="Path 582" d="M598.091,303.357l-9.224.7a.956.956,0,0,1-.966-.791,1.029,1.029,0,0,1,.791-.966l9.224-.7a.956.956,0,0,1,.966.791,1.029,1.029,0,0,1-.791.966Z" transform="translate(-65.547 -36.641)" fill="#3f3d56"/>
    <path id="Path_583" data-name="Path 583" d="M598.391,308.257l-9.224.7a.883.883,0,0,1-.176-1.757h0l9.224-.7a.956.956,0,0,1,.966.791A.794.794,0,0,1,598.391,308.257Z" transform="translate(-65.584 -37.236)" fill="#3f3d56"/>
    <path id="Path_584" data-name="Path 584" d="M598.791,313.257l-9.224.7a.956.956,0,0,1-.966-.791,1.029,1.029,0,0,1,.791-.966l9.224-.7a.956.956,0,0,1,.966.791A.894.894,0,0,1,598.791,313.257Z" transform="translate(-65.632 -37.844)" fill="#3f3d56"/>
    <path id="Path_586" data-name="Path 586" d="M467.436,164.744h-88.73a7.874,7.874,0,0,1-7.907-7.907V80.407a7.874,7.874,0,0,1,7.907-7.907h88.73a7.874,7.874,0,0,1,7.907,7.907v76.431A7.93,7.93,0,0,1,467.436,164.744Zm-88.73-90.487a6.112,6.112,0,0,0-6.15,6.15v76.431a6.112,6.112,0,0,0,6.15,6.15h88.73a6.112,6.112,0,0,0,6.15-6.15V80.407a6.112,6.112,0,0,0-6.15-6.15Z" transform="translate(-39.172 -8.808)" fill="#d9d9d9"/>
    <path id="Path_587" data-name="Path 587" d="M456.281,154.524H393.467A7.461,7.461,0,0,1,386,147.057V93.467A7.461,7.461,0,0,1,393.467,86h62.814a7.461,7.461,0,0,1,7.467,7.467v53.589A7.461,7.461,0,0,1,456.281,154.524Z" transform="translate(-41.019 -10.448)" fill="#ccc"/>
    <circle id="Ellipse_41" data-name="Ellipse 41" cx="4.393" cy="4.393" r="4.393" transform="translate(379.946 43.486)" fill="#d9d9d9"/>
    <path id="Path_588" data-name="Path 588" d="M438.542,71.388l-9.224-15.374-9.224,15.374-1.493-.879L429.318,52.5l10.718,18.009Z" transform="translate(-44.979 -6.378)" fill="#d9d9d9"/>
    <path id="Path_589" data-name="Path 589" d="M439.931,117.453a20.178,20.178,0,0,0-.439-3.953H426.314a3.524,3.524,0,0,0-3.514,3.514v18.8A18.421,18.421,0,0,0,439.931,117.453Z" transform="translate(-45.489 -13.789)" fill="#1df69f"/>
    <path id="Path_590" data-name="Path 590" d="M418.627,134.655A19.327,19.327,0,1,1,437.515,111.2l.264,1.054H423.547a2.588,2.588,0,0,0-2.636,2.636v19.679l-.966.088Zm0-36.9a17.57,17.57,0,0,0,0,35.14h.439v-18.01a4.35,4.35,0,0,1,4.393-4.393h12.036A17.58,17.58,0,0,0,418.627,97.757Z" transform="translate(-42.634 -11.663)" fill="#fff"/>
    <path id="Path_591" data-name="Path 591" d="M447.277,142.369H426.193a4.35,4.35,0,0,1-4.393-4.393V134.9l.791-.088A17.513,17.513,0,0,0,438.843,116.1a22.289,22.289,0,0,0-.351-2.548l-.264-1.054h8.961a4.35,4.35,0,0,1,4.393,4.393v21.084A4.277,4.277,0,0,1,447.277,142.369Zm-23.72-5.886v1.493a2.588,2.588,0,0,0,2.636,2.636h21.084a2.588,2.588,0,0,0,2.636-2.636V116.893a2.589,2.589,0,0,0-2.636-2.636h-6.852a18.162,18.162,0,0,1,.264,3.075A19.366,19.366,0,0,1,423.557,136.483Z" transform="translate(-45.368 -13.667)" fill="#fff"/>
  </g>
</svg>
